<svg width="501" height="328" viewBox="0 0 501 328" fill="none" xmlns="http://www.w3.org/2000/svg">
<path d="M492.162 0L402.281 3.51603L410.65 15.6983L417.599 24.9589L273.046 133.345L203.253 123.375L0 275.786L8.35265 287.952L38.0656 327.585L224.911 187.472L294.703 197.459L456.16 76.3953L471.957 97.475L500.515 12.1823L492.162 0Z" fill="#407BFF"/>
<path opacity="0.2" d="M492.162 0L402.281 3.51603L410.65 15.6983L417.599 24.9589L273.046 133.345L203.253 123.375L0 275.786L8.35265 287.952L38.0656 327.585L224.911 187.472L294.703 197.459L456.16 76.3953L471.957 97.475L500.515 12.1823L492.162 0Z" fill="black"/>
<path d="M492.162 0L402.281 3.51603L418.078 24.5957L273.046 133.345L203.253 123.375L0 275.786L29.6965 315.403L216.558 175.29L286.334 185.277L447.791 64.213L463.605 85.2927L492.162 0Z" fill="#407BFF"/>
</svg>
