<svg width="647" height="220" viewBox="0 0 647 220" fill="none" xmlns="http://www.w3.org/2000/svg">
<path d="M165.347 138.744C172.203 96.5118 143.524 56.7189 101.292 49.8638C59.0605 43.0086 19.2676 71.687 12.4124 113.919C5.55723 156.151 34.2357 195.943 76.4675 202.799C118.699 209.654 158.492 180.975 165.347 138.744Z" fill="#407BFF"/>
<path opacity="0.7" d="M165.347 138.744C172.203 96.5118 143.524 56.7189 101.292 49.8638C59.0605 43.0086 19.2676 71.687 12.4124 113.919C5.55723 156.151 34.2357 195.943 76.4675 202.799C118.699 209.654 158.492 180.975 165.347 138.744Z" fill="#FAFAFA"/>
<path d="M46.9867 125.014C46.9867 115.275 48.742 108.458 52.2525 104.562C55.7631 100.666 61.1059 98.7184 68.281 98.7184C71.1679 98.6318 74.047 99.0622 76.7822 99.9895C78.7965 100.713 80.6438 101.836 82.2131 103.291C83.5249 104.546 84.6381 105.993 85.5145 107.583C86.3746 109.251 87.0234 111.02 87.4459 112.849C88.4144 116.764 88.8967 120.783 88.882 124.816C88.882 134.104 87.3083 140.911 84.1609 145.236C81.0136 149.561 75.5937 151.718 67.9013 151.707C64.2984 151.86 60.7109 151.153 57.4358 149.643C54.7306 148.261 52.4492 146.174 50.8329 143.602C49.4072 141.212 48.4283 138.583 47.9441 135.843C47.2589 132.275 46.9382 128.647 46.9867 125.014ZM61.1169 125.014C61.1169 131.54 61.6671 135.997 62.7676 138.385C63.1382 139.41 63.8088 140.3 64.692 140.939C65.5752 141.578 66.6302 141.936 67.7198 141.967C69.1255 141.977 70.4781 141.431 71.4834 140.449C72.7057 139.103 73.5188 137.437 73.8274 135.645C74.4193 132.262 74.6682 128.827 74.5703 125.394C74.5703 118.571 74.02 113.993 72.9195 111.66C72.5104 110.62 71.7966 109.728 70.8717 109.1C69.9468 108.473 68.8539 108.14 67.7363 108.144C66.6124 108.126 65.5116 108.464 64.5922 109.111C63.6727 109.757 62.9819 110.679 62.619 111.743C61.6176 114.153 61.1169 118.593 61.1169 125.064V125.014Z" fill="#FAFAFA"/>
<path d="M127.047 98.7185V150.947H112.636V116.777C110.517 118.418 108.251 119.86 105.868 121.086C103.21 122.361 100.449 123.41 97.6144 124.222V112.552C101.689 111.377 105.515 109.47 108.905 106.923C111.594 104.726 113.75 101.95 115.211 98.801L127.047 98.7185Z" fill="#FAFAFA"/>
<path d="M319.181 144.098C329.009 102.458 303.22 60.7341 261.579 50.9061C219.939 41.0781 178.215 66.8671 168.387 108.508C158.559 150.148 184.348 191.872 225.989 201.7C267.629 211.528 309.353 185.739 319.181 144.098Z" fill="#407BFF"/>
<path opacity="0.7" d="M319.181 144.098C329.009 102.458 303.22 60.7341 261.579 50.9061C219.939 41.0781 178.215 66.8671 168.387 108.508C158.559 150.148 184.348 191.872 225.989 201.7C267.629 211.528 309.353 185.739 319.181 144.098Z" fill="#FAFAFA"/>
<path d="M198.721 125.014C198.721 115.275 200.476 108.458 203.987 104.562C207.497 100.666 212.84 98.7184 220.015 98.7184C222.902 98.6318 225.781 99.0622 228.517 99.9895C230.528 100.709 232.37 101.832 233.931 103.291C235.247 104.542 236.36 105.99 237.232 107.583C238.092 109.251 238.741 111.02 239.164 112.849C240.132 116.764 240.614 120.783 240.6 124.816C240.6 134.104 239.026 140.911 235.879 145.236C232.731 149.561 227.311 151.718 219.619 151.707C216.016 151.862 212.428 151.154 209.154 149.643C206.448 148.261 204.167 146.174 202.551 143.602C201.125 141.212 200.146 138.583 199.662 135.843C198.982 132.275 198.667 128.647 198.721 125.014ZM212.851 125.014C212.851 131.54 213.401 135.997 214.502 138.385C214.873 139.41 215.543 140.3 216.426 140.939C217.309 141.578 218.364 141.936 219.454 141.967C220.148 141.974 220.836 141.843 221.479 141.582C222.122 141.321 222.707 140.936 223.201 140.449C224.436 139.112 225.251 137.441 225.545 135.645C226.153 132.264 226.408 128.828 226.305 125.394C226.305 118.571 225.727 113.993 224.571 111.66C224.161 110.617 223.445 109.723 222.517 109.096C221.588 108.468 220.492 108.136 219.372 108.144C218.25 108.129 217.153 108.469 216.237 109.116C215.321 109.762 214.633 110.681 214.271 111.743C213.363 114.169 212.851 118.593 212.851 125.064V125.014Z" fill="#FAFAFA"/>
<path d="M288.19 150.947H245.436C245.949 146.678 247.483 142.595 249.91 139.045C252.386 135.337 257.041 130.935 263.875 125.84C266.841 123.845 269.532 121.469 271.881 118.775C272.936 117.476 273.549 115.874 273.631 114.202C273.651 113.455 273.514 112.712 273.23 112.022C272.946 111.331 272.52 110.707 271.98 110.191C270.769 109.105 269.199 108.505 267.572 108.505C265.946 108.505 264.376 109.105 263.165 110.191C261.777 111.918 260.963 114.036 260.838 116.249L246.575 115.093C246.897 111.773 247.952 108.565 249.662 105.701C251.214 103.396 253.406 101.594 255.968 100.518C259.568 99.1699 263.402 98.558 267.242 98.7183C271.212 98.5349 275.182 99.0948 278.946 100.369C281.634 101.406 283.939 103.245 285.549 105.635C287.142 107.98 287.978 110.757 287.942 113.591C287.926 116.778 286.973 119.889 285.202 122.538C282.505 126.246 279.148 129.425 275.298 131.914C272.426 133.895 270.511 135.282 269.553 136.074C268.596 136.866 267.457 137.906 266.136 139.194H288.388L288.19 150.947Z" fill="#FAFAFA"/>
<path d="M397.249 158.633C439.98 156.484 472.877 120.101 470.727 77.3704C468.578 34.6399 432.195 1.74265 389.465 3.89233C346.734 6.04201 313.837 42.4246 315.987 85.1551C318.136 127.886 354.519 160.783 397.249 158.633Z" fill="#407BFF"/>
<path opacity="0.7" d="M397.249 158.633C439.98 156.484 472.877 120.101 470.727 77.3704C468.578 34.6399 432.195 1.74265 389.465 3.89233C346.734 6.04201 313.837 42.4246 315.987 85.1551C318.136 127.886 354.519 160.783 397.249 158.633Z" fill="#FAFAFA"/>
<path d="M353.79 96.1765C350.081 87.1635 349.107 80.192 350.868 75.2618C352.629 70.3317 356.827 66.48 363.463 63.7068C366.101 62.5272 368.931 61.8338 371.815 61.6599C373.954 61.554 376.091 61.897 378.088 62.6668C379.781 63.3227 381.362 64.2359 382.776 65.374C384.213 66.5862 385.494 67.9725 386.589 69.5008C388.971 72.7523 390.945 76.2837 392.466 80.0159C396.021 88.6106 397.16 95.5051 395.883 100.699C394.606 105.894 390.419 109.987 383.321 112.981C380.042 114.481 376.458 115.193 372.855 115.061C369.846 114.781 366.965 113.71 364.503 111.957C362.283 110.291 360.382 108.239 358.89 105.899C356.864 102.84 355.155 99.5824 353.79 96.1765ZM366.88 90.8281C369.356 96.8697 371.601 100.732 373.565 102.532C374.307 103.346 375.279 103.916 376.352 104.166C377.424 104.417 378.548 104.336 379.574 103.935C380.222 103.678 380.813 103.294 381.311 102.807C381.81 102.319 382.207 101.738 382.479 101.096C383.106 99.3883 383.22 97.5353 382.809 95.7638C382.083 92.4042 381.01 89.1292 379.607 85.9915C376.999 79.6967 374.721 75.6855 372.773 73.9577C371.996 73.1519 370.994 72.6005 369.897 72.3765C368.801 72.1525 367.662 72.2664 366.632 72.7032C365.6 73.1205 364.726 73.8522 364.133 74.7945C363.541 75.7367 363.26 76.8416 363.331 77.9525C363.243 80.5606 364.426 84.8525 366.88 90.8281Z" fill="#FAFAFA"/>
<path d="M406.695 62.9144L393.324 65.8031C392.66 61.8109 393.445 57.7128 395.536 54.2481C397.616 50.9466 401.347 48.1954 406.728 45.9945C412.918 43.4359 417.871 42.6931 421.585 43.9146C423.325 44.4073 424.927 45.2953 426.267 46.5094C427.607 47.7234 428.649 49.2307 429.31 50.9136C430.158 52.885 430.372 55.0716 429.921 57.1699C429.352 59.5542 428.22 61.7675 426.619 63.6242C428.221 63.3357 429.856 63.2856 431.472 63.4756C433.398 63.7727 435.209 64.576 436.722 65.8031C438.361 67.1708 439.617 68.9394 440.37 70.9369C441.512 73.7314 441.893 76.7784 441.476 79.7682C441.079 82.8968 439.744 85.8318 437.646 88.1869C434.89 91.0819 431.5 93.297 427.742 94.6577C424.332 96.2202 420.658 97.1274 416.913 97.3319C414.138 97.3794 411.396 96.7265 408.94 95.4336C406.324 93.9604 404.033 91.9726 402.205 89.59L414.652 82.4259C415.72 84.3676 417.348 85.9433 419.323 86.9489C420.88 87.5222 422.601 87.4569 424.11 86.7673C424.951 86.442 425.71 85.9364 426.335 85.2862C426.96 84.636 427.434 83.8569 427.725 83.0036C428.365 81.0654 428.235 78.9557 427.362 77.1106C426.709 75.2035 425.342 73.6237 423.549 72.7032C422.708 72.324 421.797 72.1279 420.875 72.1279C419.953 72.1279 419.041 72.324 418.201 72.7032C416.779 73.3733 415.453 74.228 414.255 75.2453L411.053 65.5555C411.658 65.4105 412.253 65.2286 412.836 65.0108C414.449 64.3863 415.754 63.1534 416.467 61.5773C416.816 60.8599 417.007 60.0761 417.027 59.2788C417.046 58.4815 416.895 57.6892 416.583 56.9553C416.359 56.3074 416.002 55.7131 415.536 55.2102C415.07 54.7072 414.505 54.3066 413.876 54.0335C413.218 53.7804 412.516 53.6645 411.812 53.6929C411.108 53.7213 410.417 53.8934 409.782 54.1986C409.078 54.4563 408.432 54.8517 407.882 55.3619C407.332 55.8721 406.889 56.4867 406.58 57.1699C406.006 59.0482 406.046 61.0606 406.695 62.9144Z" fill="#FAFAFA"/>
<path d="M629.035 144.114C638.864 102.473 613.074 60.7497 571.434 50.9217C529.794 41.0936 488.07 66.8827 478.242 108.523C468.414 150.164 494.203 191.887 535.844 201.715C577.484 211.543 619.207 185.754 629.035 144.114Z" fill="#407BFF"/>
<path opacity="0.7" d="M629.035 144.114C638.864 102.473 613.074 60.7497 571.434 50.9217C529.794 41.0936 488.07 66.8827 478.242 108.523C468.414 150.164 494.203 191.887 535.844 201.715C577.484 211.543 619.207 185.754 629.035 144.114Z" fill="#FAFAFA"/>
<path d="M507.092 125.014C507.092 115.275 508.847 108.458 512.358 104.562C515.868 100.666 521.211 98.7184 528.386 98.7184C531.273 98.6318 534.152 99.0622 536.888 99.9895C538.899 100.709 540.741 101.832 542.302 103.291C543.618 104.542 544.731 105.99 545.603 107.583C546.464 109.251 547.112 111.02 547.535 112.849C548.503 116.764 548.986 120.783 548.971 124.816C548.971 134.104 547.397 140.911 544.25 145.236C541.102 149.561 535.683 151.729 527.99 151.74C524.387 151.895 520.799 151.187 517.525 149.676C514.819 148.294 512.538 146.207 510.922 143.635C509.496 141.245 508.517 138.616 508.033 135.876C507.351 132.297 507.036 128.658 507.092 125.014ZM521.222 125.014C521.222 131.54 521.8 135.997 522.956 138.385C523.326 139.41 523.997 140.3 524.88 140.939C525.763 141.578 526.818 141.936 527.908 141.967C528.602 141.974 529.29 141.843 529.933 141.582C530.576 141.321 531.161 140.936 531.655 140.449C532.89 139.112 533.705 137.441 533.999 135.645C534.607 132.264 534.861 128.828 534.758 125.394C534.758 118.571 534.18 113.993 533.025 111.66C532.615 110.617 531.898 109.723 530.97 109.096C530.042 108.468 528.946 108.136 527.825 108.144C526.704 108.129 525.607 108.469 524.691 109.116C523.775 109.762 523.086 110.681 522.724 111.743C521.734 114.153 521.233 118.593 521.222 125.064V125.014Z" fill="#FAFAFA"/>
<path d="M579.344 141.291H553.395V129.57L579.344 98.7185H591.757V130.231H598.195V141.291H591.757V150.947H579.344V141.291ZM579.344 130.231V114.103L565.627 130.231H579.344Z" fill="#FAFAFA"/>
<path d="M553.659 210.951C551.47 210.951 549.37 210.081 547.823 208.533C546.275 206.986 545.405 204.886 545.405 202.697C545.405 200.508 546.275 198.409 547.823 196.861C549.37 195.313 551.47 194.444 553.659 194.444C567.349 194.447 580.732 190.39 592.117 182.787C603.501 175.184 612.375 164.375 617.617 151.728C622.858 139.081 624.231 125.163 621.562 111.736C618.893 98.3086 612.303 85.9742 602.623 76.2927C592.944 66.6112 580.611 60.0175 567.184 57.3455C553.758 54.6735 539.84 56.0432 527.192 61.2814C514.544 66.5196 503.733 75.391 496.127 86.7737C488.52 98.1563 484.461 111.539 484.461 125.229C484.461 147.964 475.429 169.768 459.353 185.844C443.277 201.92 421.474 210.951 398.739 210.951C376.004 210.951 354.2 201.92 338.124 185.844C322.048 169.768 313.017 147.964 313.017 125.229C313.017 106.872 305.725 89.2671 292.744 76.2868C279.764 63.3066 262.159 56.0143 243.802 56.0143C225.445 56.0143 207.84 63.3066 194.86 76.2868C181.88 89.2671 174.587 106.872 174.587 125.229C174.587 142.185 169.559 158.759 160.138 172.857C150.718 186.955 137.328 197.942 121.662 204.429C105.997 210.916 88.7592 212.612 72.1298 209.301C55.5005 205.991 40.2264 197.824 28.2393 185.832C16.2522 173.84 8.09056 158.563 4.78669 141.932C1.48282 125.302 3.18512 108.065 9.67827 92.4018C16.1714 76.7387 27.1637 63.3531 41.265 53.9378C55.3662 44.5225 71.9429 39.5006 88.8985 39.5071C91.0875 39.5071 93.1868 40.3767 94.7347 41.9245C96.2826 43.4724 97.1521 45.5717 97.1521 47.7607C97.1521 49.9497 96.2826 52.049 94.7347 53.5969C93.1868 55.1447 91.0875 56.0143 88.8985 56.0143C75.2091 56.0143 61.8272 60.0737 50.4449 67.6791C39.0626 75.2845 30.1912 86.0944 24.9525 98.7417C19.7138 111.389 18.3431 125.306 21.0138 138.732C23.6844 152.158 30.2765 164.491 39.9563 174.171C49.6362 183.851 61.9691 190.443 75.3954 193.114C88.8217 195.784 102.739 194.414 115.386 189.175C128.033 183.936 138.843 175.065 146.448 163.683C154.054 152.3 158.113 138.918 158.113 125.229C158.113 102.494 167.145 80.6905 183.221 64.6145C199.297 48.5385 221.1 39.5071 243.835 39.5071C266.57 39.5071 288.374 48.5385 304.45 64.6145C320.526 80.6905 329.557 102.494 329.557 125.229C329.557 134.318 331.347 143.319 334.826 151.716C338.304 160.114 343.402 167.744 349.83 174.171C356.257 180.598 363.887 185.697 372.284 189.175C380.682 192.653 389.682 194.444 398.772 194.444C407.861 194.444 416.862 192.653 425.259 189.175C433.657 185.697 441.287 180.598 447.714 174.171C454.141 167.744 459.239 160.114 462.718 151.716C466.196 143.319 467.986 134.318 467.986 125.229C467.986 108.274 473.014 91.7 482.434 77.6028C491.854 63.5055 505.243 52.5183 520.908 46.0307C536.572 39.5431 553.809 37.8465 570.438 41.1554C587.067 44.4644 602.341 52.6302 614.329 64.6203C626.316 76.6104 634.479 91.8861 637.785 108.516C641.091 125.145 639.391 142.381 632.9 158.045C626.41 173.708 615.42 187.095 601.321 196.512C587.222 205.929 570.647 210.954 553.692 210.951H553.659Z" fill="#407BFF"/>
<path d="M469.835 182.757L468.564 181.717C472.324 177.068 475.614 172.058 478.386 166.761L479.855 167.537C477.018 172.924 473.663 178.022 469.835 182.757Z" fill="#407BFF"/>
<path d="M432.529 210.258L431.918 208.722C442.3 204.585 451.818 198.545 459.98 190.911L461.103 192.116C452.791 199.89 443.1 206.042 432.529 210.258Z" fill="#407BFF"/>
</svg>
